<svg xmlns="http://www.w3.org/2000/svg" xmlns:xlink="http://www.w3.org/1999/xlink" width="5284" zoomAndPan="magnify" viewBox="0 0 3963 1171.49997" height="1562" preserveAspectRatio="xMidYMid meet" version="1.0"><defs><g/><clipPath id="56e8925817"><path d="M 26.5 723 L 3961.570312 723 L 3961.570312 746 L 26.5 746 Z M 26.5 723 " clip-rule="nonzero"/></clipPath><clipPath id="5ea8a10345"><path d="M 3720 196 L 3945.882812 196 L 3945.882812 673 L 3720 673 Z M 3720 196 " clip-rule="nonzero"/></clipPath><clipPath id="bdc7959a4c"><path d="M 3818 236 L 3945.882812 236 L 3945.882812 673 L 3818 673 Z M 3818 236 " clip-rule="nonzero"/></clipPath></defs><g clip-path="url(#56e8925817)"><path stroke-linecap="round" transform="matrix(3.613813, 0, 0, 3.614567, 26.499508, 0.0975365)" fill="none" stroke-linejoin="round" d="M 3.1694 203.169918 L 1085.726891 203.169918 " stroke="#788f9c" stroke-width="6.34" stroke-opacity="1" stroke-miterlimit="4"/></g><path fill="#593313" d="M 3654.070312 113.515625 C 3653 179.121094 3806.75 310.667969 3706.894531 343.210938 C 3781.480469 382.859375 3785.6875 349.050781 3818.0625 297.726562 C 3850.441406 246.402344 3858.003906 181.734375 3845.898438 122.265625 C 3839.074219 88.738281 3838.992188 40.285156 3813.726562 17.21875 C 3787.949219 -6.3125 3733.28125 -4.320312 3702.492188 17.207031 C 3670.160156 39.8125 3654.683594 76.273438 3654.070312 113.515625 Z M 3654.070312 113.515625 " fill-opacity="1" fill-rule="nonzero"/><path fill="#f5bd95" d="M 3810.703125 30.660156 C 3786.265625 26.226562 3760.675781 28.09375 3736.660156 33.804688 C 3717.023438 38.476562 3695.304688 46.378906 3679.652344 60.304688 C 3674.285156 86.234375 3679.613281 113.199219 3690.269531 137.089844 C 3696.621094 151.320312 3725.449219 203.554688 3754.722656 213.519531 C 3793.273438 226.652344 3830.457031 149.550781 3833.628906 125.785156 C 3837.722656 95.085938 3836.503906 74.054688 3821.730469 47.347656 C 3818.511719 41.535156 3814.75 35.988281 3810.703125 30.660156 Z M 3810.703125 30.660156 " fill-opacity="1" fill-rule="nonzero"/><path fill="#f5bd95" d="M 3786.160156 192.285156 C 3786.160156 192.285156 3864.578125 270.707031 3864.578125 270.707031 C 3864.578125 270.707031 3896.714844 210.851562 3896.714844 210.851562 C 3896.714844 210.851562 3825.203125 147.9375 3825.203125 147.9375 Z M 3786.160156 192.285156 " fill-opacity="1" fill-rule="nonzero"/><path fill="#593313" d="M 3700.222656 22.363281 C 3681.730469 37.457031 3665.699219 57.417969 3674.542969 78.46875 C 3681.21875 94.359375 3778.496094 192.714844 3876.75 193.289062 C 3870.507812 184.824219 3855.246094 153.421875 3858.324219 124.707031 C 3861.398438 95.996094 3860.558594 65.644531 3845.488281 40.363281 C 3817.347656 -6.847656 3742.484375 -12.128906 3700.222656 22.363281 Z M 3700.222656 22.363281 " fill-opacity="1" fill-rule="nonzero"/><path fill="#593313" d="M 3681.445312 71.945312 C 3681.445312 71.945312 3701.660156 125.328125 3723.28125 139.351562 C 3711.839844 134.5 3685.289062 112.824219 3675.328125 85.285156 C 3665.363281 57.746094 3681.445312 71.945312 3681.445312 71.945312 Z M 3681.445312 71.945312 " fill-opacity="1" fill-rule="nonzero"/><path fill="#ffffff" d="M 3750.953125 179.019531 C 3750.953125 179.019531 3746.144531 184.425781 3734.867188 191.4375 C 3743.058594 198.339844 3755.945312 199.273438 3750.953125 179.019531 Z M 3750.953125 179.019531 " fill-opacity="1" fill-rule="nonzero"/><path stroke-linecap="butt" transform="matrix(-2.671059, 0.541604, 0.541491, 2.671616, 3713.883862, 35.908617)" fill-opacity="1" fill="#593313" fill-rule="nonzero" stroke-linejoin="miter" d="M 12.325899 5.771611 C 12.325899 5.771611 9.195949 -4.596397 -12.326325 -5.770372 " stroke="#94784e" stroke-width="1" stroke-opacity="1" stroke-miterlimit="10"/><path stroke-linecap="butt" transform="matrix(-2.671059, 0.541604, 0.541491, 2.671616, 3759.88281, 11.205724)" fill-opacity="1" fill="#593313" fill-rule="nonzero" stroke-linejoin="miter" d="M 1.418675 -0.24471 C 1.418675 -0.24471 -1.418771 0.244246 -1.418771 0.244246 " stroke="#94784e" stroke-width="1" stroke-opacity="1" stroke-miterlimit="10"/><path stroke-linecap="round" transform="matrix(-2.671059, 0.541604, 0.541491, 2.671616, 3722.545005, 151.344867)" fill="none" stroke-linejoin="miter" d="M 1.50964 -3.009939 C 1.50964 -3.009939 -1.509458 3.010528 -1.509458 3.010528 " stroke="#607d8b" stroke-width="1.318" stroke-opacity="1" stroke-miterlimit="10"/><g clip-path="url(#5ea8a10345)"><path fill="#ff9800" d="M 3832.4375 672.933594 C 3806.105469 656.894531 3773.828125 635.007812 3754.304688 611.121094 C 3737.417969 590.472656 3726.058594 566.566406 3720.054688 540.957031 C 3729.664062 535.3125 3741.261719 512.925781 3742.503906 506.253906 C 3745.738281 488.863281 3780.4375 438.683594 3776.640625 421.382812 C 3770.277344 392.441406 3746.253906 336.28125 3765.351562 318.335938 C 3794.054688 291.363281 3816.175781 255.957031 3826.832031 218.058594 C 3825.574219 222.523438 3873.386719 198.421875 3874.234375 198.097656 C 3894.222656 190.402344 3915.414062 219.6875 3925.203125 234.925781 C 3948.378906 271.007812 3947.828125 317.0625 3943.621094 359.742188 C 3934.484375 452.472656 3911.179688 545.195312 3863.152344 625.039062 C 3853.316406 641.390625 3844.671875 660.234375 3832.4375 672.933594 Z M 3832.4375 672.933594 " fill-opacity="1" fill-rule="nonzero"/></g><g clip-path="url(#bdc7959a4c)"><path fill="#f57c00" d="M 3822.851562 656.734375 C 3842.046875 624.234375 3857.53125 589.726562 3872.484375 555.121094 C 3888.957031 517.003906 3904.511719 478.578125 3914.371094 438.132812 C 3919.433594 417.347656 3922.578125 396.347656 3925.527344 375.1875 C 3928.539062 353.621094 3931.511719 331.976562 3930.9375 310.144531 C 3930.488281 292.902344 3929.820312 275.46875 3928.59375 258.253906 C 3928.089844 251.117188 3927.410156 243.789062 3926.183594 236.578125 C 3948.3125 272.410156 3947.765625 317.703125 3943.621094 359.742188 C 3934.484375 452.46875 3911.179688 545.191406 3863.152344 625.035156 C 3853.316406 641.386719 3844.671875 660.230469 3832.4375 672.933594 C 3827.894531 670.164062 3823.144531 667.164062 3818.34375 664.066406 C 3819.847656 661.628906 3821.390625 659.207031 3822.851562 656.734375 Z M 3822.851562 656.734375 " fill-opacity="1" fill-rule="nonzero"/></g><path fill="#7b1fa2" d="M 3258.464844 612.03125 C 3309.128906 549.046875 3358.851562 485.378906 3410.050781 422.769531 C 3466.074219 438.464844 3521.011719 457.472656 3574.441406 479.625 C 3601.46875 490.832031 3695.207031 534.757812 3720.179688 540.953125 C 3721.644531 540.953125 3723.058594 540.574219 3724.429688 539.960938 C 3726.835938 549.621094 3730.171875 559.082031 3734.53125 568.207031 C 3750.746094 602.136719 3778.882812 630.050781 3810.585938 652.140625 C 3819.554688 658.390625 3828.890625 664.191406 3838.457031 669.632812 C 3814.726562 692.273438 3785.746094 707.535156 3747.566406 709.964844 C 3693.757812 713.394531 3639.179688 695.050781 3596.074219 665.859375 C 3534.140625 623.917969 3491.410156 562.539062 3450.113281 502.59375 C 3448.527344 507.664062 3446.679688 512.660156 3444.59375 517.566406 C 3430.789062 549.945312 3406.328125 577.34375 3378.996094 600.753906 C 3357.832031 618.882812 3334.640625 634.914062 3310.664062 649.667969 C 3306.527344 652.210938 3301.542969 654.753906 3296.183594 657.394531 C 3279.433594 646.84375 3264.054688 634.207031 3252.835938 618.96875 C 3254.703125 616.671875 3256.566406 614.394531 3258.464844 612.03125 Z M 3258.464844 612.03125 " fill-opacity="1" fill-rule="nonzero"/><path fill="#f5bd95" d="M 3082.1875 721.023438 C 3113.199219 709.6875 3159.230469 695.105469 3189.210938 680.417969 C 3221.785156 664.464844 3231.578125 645.101562 3252.84375 618.976562 C 3264.0625 634.210938 3279.433594 646.84375 3296.179688 657.390625 C 3273.59375 668.519531 3244.230469 681.46875 3242.964844 704.167969 C 3242.664062 709.53125 3243.667969 715.417969 3240.398438 719.84375 C 3236.285156 725.40625 3227.613281 726.351562 3220.347656 726.117188 C 3175.550781 723.476562 3128.425781 727.308594 3083.847656 725.792969 C 3081.910156 725.730469 3079.292969 724.972656 3079.554688 723.1875 C 3079.71875 722.058594 3081.039062 721.445312 3082.1875 721.023438 Z M 3082.1875 721.023438 " fill-opacity="1" fill-rule="nonzero"/><path fill="#6a1b99" d="M 3285.71875 645.453125 C 3320.980469 631.878906 3351.652344 610.023438 3378.28125 584.910156 C 3391.519531 572.429688 3434.628906 537.1875 3448.691406 506.449219 C 3447.414062 510.183594 3446.144531 513.921875 3444.589844 517.5625 C 3430.785156 549.941406 3406.324219 577.347656 3378.996094 600.757812 C 3357.828125 618.882812 3334.636719 634.914062 3310.660156 649.667969 C 3306.527344 652.210938 3301.542969 654.753906 3296.179688 657.394531 C 3291.03125 654.148438 3286.089844 650.632812 3281.28125 646.980469 C 3282.75 646.449219 3284.257812 646.015625 3285.71875 645.453125 Z M 3285.71875 645.453125 " fill-opacity="1" fill-rule="nonzero"/><path fill="#6a1b99" d="M 3593.960938 624.011719 C 3618.695312 633.742188 3625.007812 653.605469 3649.726562 663.515625 C 3649.015625 668.703125 3648.097656 673.855469 3646.773438 678.9375 C 3645.722656 682.980469 3644.40625 687.097656 3642.652344 691.027344 C 3626.15625 684.105469 3610.464844 675.609375 3596.074219 665.863281 C 3554.019531 637.382812 3492.429688 560.410156 3462.523438 520.539062 C 3488.492188 546.460938 3547.621094 605.785156 3593.960938 624.011719 Z M 3593.960938 624.011719 " fill-opacity="1" fill-rule="nonzero"/><path fill="#8e24aa" d="M 3321.386719 678.003906 C 3320.898438 742.339844 3337.097656 805.519531 3357.441406 866.085938 C 3367.695312 896.601562 3379.140625 926.691406 3390.570312 956.789062 C 3391.105469 958.207031 3391.546875 959.648438 3392.054688 961.070312 C 3399.023438 960.003906 3406.011719 959.160156 3413.089844 958.847656 C 3423.960938 958.382812 3434.816406 958.78125 3445.621094 959.691406 C 3445.710938 957.273438 3445.800781 954.835938 3445.863281 952.414062 C 3445.863281 952.414062 3445.890625 952.414062 3445.863281 952.394531 C 3445.890625 952.371094 3445.890625 952.304688 3445.863281 952.257812 C 3445.890625 952.144531 3445.886719 952.035156 3445.886719 951.902344 C 3447.347656 862.175781 3393.164062 737.347656 3392.34375 735.4375 C 3392.34375 735.4375 3394.035156 737.171875 3394.035156 737.171875 C 3393.566406 736.503906 3393.144531 735.972656 3392.8125 735.683594 C 3392.609375 735.527344 3392.457031 735.417969 3392.324219 735.417969 C 3392.324219 735.417969 3383.339844 716.441406 3383.339844 716.441406 C 3629.003906 732.6875 3781.8125 674.386719 3815.691406 659.78125 C 3802.511719 651.550781 3785.652344 639.835938 3777.507812 629.492188 C 3754.253906 599.949219 3730.734375 587.171875 3692.925781 589.277344 C 3584.183594 595.402344 3471.980469 610.984375 3363.792969 623.566406 C 3354.230469 624.679688 3344.171875 625.984375 3336.453125 631.753906 C 3322.941406 641.808594 3321.519531 661.160156 3321.386719 678.003906 Z M 3321.386719 678.003906 " fill-opacity="1" fill-rule="nonzero"/><path fill="#f5bd95" d="M 3417.589844 1048.175781 C 3409.914062 1019.015625 3402.5 989.335938 3392.128906 961.074219 C 3399.0625 959.992188 3406.042969 959.160156 3413.101562 958.855469 C 3423.957031 958.386719 3434.808594 958.78125 3445.625 959.707031 C 3445.625 959.679688 3445.625 959.652344 3445.625 959.628906 C 3445.171875 973.25 3444.820312 986.847656 3445.777344 1000.308594 C 3446.566406 1011.46875 3451.058594 1022.890625 3460.070312 1029.507812 C 3468.304688 1035.558594 3480.277344 1037.917969 3484.351562 1047.292969 C 3486.890625 1053.144531 3485.351562 1059.875 3483.78125 1066.058594 C 3482.421875 1066.058594 3473.898438 1103.742188 3473.34375 1107.398438 C 3471.183594 1121.574219 3471.269531 1136.566406 3470.191406 1150.890625 C 3469.890625 1154.832031 3469.539062 1158.960938 3467.398438 1162.289062 C 3463.007812 1169.132812 3421.042969 1176.355469 3418.765625 1164.859375 C 3417.789062 1159.910156 3436.640625 1155.121094 3438.320312 1150.363281 C 3442.566406 1138.34375 3436.867188 1125.117188 3433.839844 1112.734375 C 3428.574219 1091.175781 3423.242188 1069.632812 3417.589844 1048.175781 Z M 3417.589844 1048.175781 " fill-opacity="1" fill-rule="nonzero"/><path fill="#7b1fa2" d="M 3380.898438 713.679688 C 3389.882812 732.65625 3392.320312 735.417969 3392.320312 735.417969 C 3462.640625 740.5 3533.195312 745.578125 3603.53125 741.164062 C 3644.691406 738.589844 3699.738281 736.238281 3739.566406 725.359375 C 3758.695312 720.148438 3811.765625 710.183594 3833.777344 670.4375 C 3833.777344 670.4375 3833.753906 670.414062 3833.753906 670.414062 C 3833.199219 670.125 3820.199219 662.542969 3810.414062 656.417969 C 3776.53125 671.023438 3626.5625 729.925781 3380.898438 713.679688 Z M 3380.898438 713.679688 " fill-opacity="1" fill-rule="nonzero"/><path fill="#7b1fa2" d="M 3445.890625 951.902344 C 3446.265625 940.496094 3446.554688 929.117188 3446.066406 917.773438 C 3444.734375 887.703125 3441.496094 857.164062 3437.878906 827.449219 C 3434.460938 799.285156 3413.628906 768.347656 3398.605469 745.023438 C 3398.007812 744.09375 3395.765625 739.695312 3394.054688 737.1875 C 3394.054688 737.1875 3394.035156 737.171875 3394.035156 737.171875 C 3394.035156 737.171875 3392.347656 735.4375 3392.347656 735.4375 C 3393.167969 737.347656 3447.351562 862.179688 3445.890625 951.902344 Z M 3445.890625 951.902344 " fill-opacity="1" fill-rule="nonzero"/><path stroke-linecap="butt" transform="matrix(-2.725393, 0, 0, 2.725962, 3433.491817, 627.962637)" fill="none" stroke-linejoin="miter" d="M -15.754743 -1.760324 C -15.754743 -1.760324 15.754471 1.760509 15.754471 1.760509 " stroke="#b967c7" stroke-width="1" stroke-opacity="1" stroke-miterlimit="10"/><path stroke-linecap="butt" transform="matrix(-2.725393, 0, 0, 2.725962, 3363.909807, 636.764696)" fill="none" stroke-linejoin="miter" d="M -2.935484 -0.390863 C -2.935484 -0.390863 2.935228 0.391544 2.935228 0.391544 " stroke="#b967c7" stroke-width="1" stroke-opacity="1" stroke-miterlimit="10"/><path fill="#f5bd95" d="M 3850.632812 266.414062 C 3801.515625 337.382812 3757.65625 415.679688 3708.542969 486.648438 C 3677.609375 466.230469 3575.644531 398.519531 3534.90625 407.488281 C 3513.714844 412.148438 3508.480469 415.953125 3487.425781 421.316406 C 3510.847656 431.550781 3519.859375 431.914062 3545.421875 431.886719 C 3599.875 431.824219 3648.917969 501.722656 3671.554688 519.742188 C 3681.949219 528.011719 3692.863281 536.539062 3705.867188 539.234375 C 3731.550781 544.5625 3755.691406 525.929688 3773.871094 507.023438 C 3814.324219 464.953125 3848.925781 413.355469 3875.648438 361.496094 C 3890.035156 333.570312 3896.40625 312.929688 3901.375 284.097656 C 3907.644531 247.726562 3865.816406 244.480469 3850.632812 266.414062 Z M 3850.632812 266.414062 " fill-opacity="1" fill-rule="nonzero"/><path stroke-linecap="butt" transform="matrix(-2.725391, 0.00390131, 0.0039005, 2.725959, 3765.176486, 427.705193)" fill="none" stroke-linejoin="miter" d="M -7.56517 -11.416529 C -7.56517 -11.416529 7.565688 11.416444 7.565688 11.416444 " stroke="#eceff1" stroke-width="1" stroke-opacity="1" stroke-miterlimit="10"/><path stroke-linecap="butt" transform="matrix(-2.725391, 0.00390131, 0.0039005, 2.725959, 3735.803329, 471.473382)" fill="none" stroke-linejoin="miter" d="M -1.109418 -1.695329 C -1.109418 -1.695329 1.108422 1.696231 1.108422 1.696231 " stroke="#eceff1" stroke-width="1" stroke-opacity="1" stroke-miterlimit="10"/><path stroke-linecap="butt" transform="matrix(-2.725393, 0, 0, 2.725962, 3501.007996, 360.014133)" fill="none" stroke-linejoin="miter" d="M 36.438329 -40.853725 C 36.438329 -40.853725 19.915484 20.850413 19.915484 20.850413 C 19.915484 20.850413 -36.439627 40.853387 -36.439627 40.853387 " stroke="#788f9c" stroke-width="5.699" stroke-opacity="1" stroke-miterlimit="10"/><g fill="#ffffff" fill-opacity="1"><g transform="translate(63.327962, 360.94211)"><g><path d="M 91.800781 -27.5 L 42.460938 -27.5 L 42.460938 -55.203125 L 89.777344 -55.203125 L 89.777344 -82.703125 L 42.460938 -82.703125 L 42.460938 -110 L 91.800781 -110 L 91.800781 -137.5 L 12.132812 -137.5 L 12.132812 0 L 91.800781 0 Z M 91.800781 -27.5 "/></g></g></g><g fill="#ffffff" fill-opacity="1"><g transform="translate(207.702286, 360.94211)"><g><path d="M 42.460938 -49.136719 L 42.664062 -49.136719 L 75.421875 0 L 113.839844 0 L 74.410156 -50.550781 C 91.800781 -54.796875 105.753906 -70.164062 105.753906 -93.417969 C 105.753906 -119.503906 85.9375 -137.5 63.695312 -137.5 L 12.132812 -137.5 L 12.132812 0 L 42.460938 0 Z M 58.640625 -113.636719 C 67.535156 -113.636719 76.835938 -105.953125 76.835938 -93.417969 C 76.835938 -80.273438 67.535156 -72.996094 58.640625 -72.996094 L 42.460938 -72.996094 L 42.460938 -113.636719 Z M 58.640625 -113.636719 "/></g></g></g><g fill="#ffffff" fill-opacity="1"><g transform="translate(359.558123, 360.94211)"><g><path d="M 42.460938 0 L 42.460938 -137.5 L 12.132812 -137.5 L 12.132812 0 Z M 42.460938 0 "/></g></g></g><g fill="#ffffff" fill-opacity="1"><g transform="translate(454.594794, 360.94211)"><g><path d="M 120.109375 0 L 120.109375 -137.5 L 89.777344 -137.5 L 89.777344 -51.765625 L 42.460938 -137.5 L 12.132812 -137.5 L 12.132812 0 L 42.460938 0 L 42.460938 -85.734375 L 89.777344 0 Z M 120.109375 0 "/></g></g></g><g fill="#ffffff" fill-opacity="1"><g transform="translate(627.277566, 360.94211)"><g/></g></g><g fill="#ffffff" fill-opacity="1"><g transform="translate(718.270157, 360.94211)"><g><path d="M 183.601562 0 L 156.910156 -137.5 L 120.917969 -137.5 L 92.40625 -41.046875 L 63.695312 -137.5 L 27.703125 -137.5 L 1.011719 0 L 34.375 0 L 50.550781 -94.832031 L 77.445312 0 L 107.167969 0 L 134.0625 -94.832031 L 150.238281 0 Z M 183.601562 0 "/></g></g></g><g fill="#ffffff" fill-opacity="1"><g transform="translate(943.323593, 360.94211)"><g><path d="M 111.414062 -46.710938 C 105.753906 -34.578125 92.003906 -26.285156 77.847656 -26.285156 C 55.605469 -26.285156 37.8125 -45.292969 37.8125 -68.75 C 37.8125 -92.003906 55.605469 -111.210938 77.847656 -111.210938 C 91.800781 -111.210938 105.550781 -103.527344 111.210938 -91.195312 L 144.980469 -91.195312 C 135.679688 -119.300781 109.191406 -139.519531 77.847656 -139.519531 C 38.824219 -139.519531 7.078125 -107.773438 7.078125 -68.75 C 7.078125 -29.722656 38.824219 2.023438 77.847656 2.023438 C 109.191406 2.023438 135.882812 -18.402344 145.183594 -46.710938 Z M 111.414062 -46.710938 "/></g></g></g><g fill="#ffffff" fill-opacity="1"><g transform="translate(1134.002486, 360.94211)"><g><path d="M 12.132812 0 L 91.800781 0 L 91.800781 -27.5 L 42.460938 -27.5 L 42.460938 -137.5 L 12.132812 -137.5 Z M 12.132812 0 "/></g></g></g><g fill="#ffffff" fill-opacity="1"><g transform="translate(1273.321709, 360.94211)"><g><path d="M 86.949219 -52.574219 L 52.167969 -52.574219 L 69.558594 -101.507812 Z M 138.308594 0 L 82.5 -137.5 L 56.820312 -137.5 L 1.011719 0 L 33.566406 0 L 43.472656 -27.703125 L 95.84375 -27.703125 L 105.753906 0 Z M 138.308594 0 "/></g></g></g><g fill="#ffffff" fill-opacity="1"><g transform="translate(1453.081648, 360.94211)"><g><path d="M 92.40625 -137.5 L 92.40625 -58.03125 C 92.40625 -39.023438 86.746094 -28.308594 65.917969 -28.308594 C 45.292969 -28.308594 39.429688 -39.023438 39.429688 -58.03125 L 39.429688 -137.5 L 9.097656 -137.5 L 9.097656 -53.582031 C 9.097656 -16.984375 30.128906 2.023438 65.917969 2.023438 C 101.707031 2.023438 122.738281 -16.984375 122.738281 -53.582031 L 122.738281 -137.5 Z M 92.40625 -137.5 "/></g></g></g><g fill="#ffffff" fill-opacity="1"><g transform="translate(1625.359974, 360.94211)"><g><path d="M 80.882812 -111.210938 C 94.226562 -111.210938 107.976562 -105.753906 114.648438 -91.195312 L 148.011719 -91.195312 C 138.507812 -119.703125 111.210938 -139.519531 80.882812 -139.519531 C 42.058594 -139.519531 10.109375 -107.574219 10.109375 -68.75 C 10.109375 -29.925781 42.058594 2.023438 80.882812 2.023438 C 120.109375 2.023438 151.449219 -29.722656 151.449219 -68.75 L 151.449219 -73.398438 L 83.710938 -73.398438 L 83.710938 -50.550781 L 118.695312 -50.550781 C 111.210938 -29.722656 94.226562 -25.476562 80.882812 -25.476562 C 59.042969 -25.476562 40.84375 -45.089844 40.84375 -68.34375 C 40.84375 -91.597656 59.042969 -111.210938 80.882812 -111.210938 Z M 80.882812 -111.210938 "/></g></g></g><g fill="#ffffff" fill-opacity="1"><g transform="translate(1824.32918, 360.94211)"><g><path d="M 87.757812 -137.5 L 87.757812 -82.703125 L 42.460938 -82.703125 L 42.460938 -137.5 L 12.132812 -137.5 L 12.132812 0 L 42.460938 0 L 42.460938 -55.203125 L 87.757812 -55.203125 L 87.757812 0 L 120.109375 0 L 120.109375 -137.5 Z M 87.757812 -137.5 "/></g></g></g><g fill="#ffffff" fill-opacity="1"><g transform="translate(1997.011997, 360.94211)"><g><path d="M 12.132812 0 L 91.800781 0 L 91.800781 -27.5 L 42.460938 -27.5 L 42.460938 -137.5 L 12.132812 -137.5 Z M 12.132812 0 "/></g></g></g><g fill="#ffffff" fill-opacity="1"><g transform="translate(2136.331123, 360.94211)"><g><path d="M 42.460938 0 L 42.460938 -137.5 L 12.132812 -137.5 L 12.132812 0 Z M 42.460938 0 "/></g></g></g><g fill="#ffffff" fill-opacity="1"><g transform="translate(2231.367886, 360.94211)"><g><path d="M 120.109375 0 L 120.109375 -137.5 L 89.777344 -137.5 L 89.777344 -51.765625 L 42.460938 -137.5 L 12.132812 -137.5 L 12.132812 0 L 42.460938 0 L 42.460938 -85.734375 L 89.777344 0 Z M 120.109375 0 "/></g></g></g><g fill="#ffffff" fill-opacity="1"><g transform="translate(63.327962, 510.197748)"><g><path d="M 29.542969 -35.945312 C 39.429688 -33.585938 46.167969 -31.003906 49.761719 -28.082031 C 52.234375 -26.0625 53.46875 -23.476562 53.46875 -20.332031 C 53.46875 -17.1875 52.796875 -14.601562 51.449219 -12.804688 C 48.078125 -8.089844 42.011719 -5.730469 33.476562 -5.730469 C 21.566406 -5.730469 14.828125 -9.773438 13.367188 -17.859375 L 4.15625 -17.859375 C 6.851562 -4.941406 16.625 1.460938 33.476562 1.460938 C 41 1.460938 47.292969 -0.113281 52.347656 -3.480469 C 58.414062 -7.414062 61.558594 -13.253906 61.558594 -20.894531 C 61.558594 -27.183594 59.085938 -32.015625 54.144531 -35.382812 C 50.660156 -37.855469 45.046875 -40.101562 37.292969 -42.125 C 29.429688 -44.148438 24.375 -45.832031 22.015625 -47.066406 C 16.851562 -49.652344 14.265625 -53.246094 14.378906 -57.964844 C 14.378906 -60.433594 14.828125 -62.570312 15.949219 -64.140625 C 18.871094 -68.523438 24.039062 -70.769531 31.453125 -70.769531 C 41.898438 -70.769531 47.851562 -67.398438 49.425781 -60.882812 L 57.964844 -60.882812 C 55.15625 -71.890625 46.28125 -77.507812 31.453125 -77.507812 C 24.714844 -77.507812 18.757812 -75.710938 13.816406 -72.117188 C 8.761719 -68.523438 6.179688 -63.242188 6.179688 -56.054688 C 6.179688 -46.28125 14.042969 -39.539062 29.542969 -35.945312 Z M 29.542969 -35.945312 "/></g></g></g><g fill="#ffffff" fill-opacity="1"><g transform="translate(150.269243, 510.197748)"><g><path d="M 48.863281 -24.9375 C 48.863281 -19.996094 47.066406 -15.839844 43.585938 -12.355469 C 39.988281 -8.761719 35.832031 -7.078125 30.890625 -7.078125 C 25.949219 -7.078125 21.679688 -8.761719 18.199219 -12.355469 C 14.601562 -15.839844 12.917969 -19.996094 12.917969 -24.9375 C 12.917969 -29.878906 14.601562 -34.035156 18.199219 -37.632812 C 21.679688 -41.113281 25.949219 -42.910156 30.890625 -42.910156 C 35.832031 -42.910156 39.988281 -41.113281 43.585938 -37.632812 C 47.066406 -34.035156 48.863281 -29.878906 48.863281 -24.9375 Z M 56.726562 -24.9375 C 56.726562 -32.015625 54.144531 -38.082031 49.089844 -43.136719 C 44.035156 -48.191406 37.96875 -50.773438 30.890625 -50.773438 C 23.703125 -50.773438 17.636719 -48.191406 12.582031 -43.136719 C 7.527344 -38.082031 5.054688 -32.015625 5.054688 -24.9375 C 5.054688 -17.75 7.527344 -11.683594 12.582031 -6.738281 C 17.636719 -1.683594 23.8125 0.785156 30.890625 0.785156 C 37.855469 0.785156 44.035156 -1.683594 49.089844 -6.738281 C 54.144531 -11.683594 56.726562 -17.75 56.726562 -24.9375 Z M 56.726562 -24.9375 "/></g></g></g><g fill="#ffffff" fill-opacity="1"><g transform="translate(234.51476, 510.197748)"><g><path d="M 34.933594 -76.949219 L 34.933594 -84.25 L 29.320312 -84.25 C 23.703125 -84.25 19.769531 -82.789062 17.410156 -80.09375 C 15.050781 -77.398438 13.929688 -73.464844 13.929688 -68.523438 L 13.929688 -49.425781 L 3.929688 -49.425781 L 3.929688 -42.125 L 13.929688 -42.125 L 13.929688 0 L 21.792969 0 L 21.792969 -42.125 L 34.933594 -42.125 L 34.933594 -49.425781 L 21.792969 -49.425781 L 21.792969 -70.769531 C 21.792969 -72.453125 22.128906 -73.914062 23.027344 -75.148438 C 23.8125 -76.273438 25.5 -76.949219 28.195312 -76.949219 Z M 34.933594 -76.949219 "/></g></g></g><g fill="#ffffff" fill-opacity="1"><g transform="translate(295.284732, 510.197748)"><g><path d="M 2.246094 -42.125 L 14.601562 -42.125 L 14.601562 0 L 22.464844 0 L 22.464844 -42.125 L 34.710938 -42.125 L 34.710938 -49.425781 L 22.464844 -49.425781 L 22.464844 -68.636719 L 14.601562 -68.636719 L 14.601562 -49.425781 L 2.246094 -49.425781 Z M 2.246094 -42.125 "/></g></g></g><g fill="#ffffff" fill-opacity="1"><g transform="translate(354.706823, 510.197748)"><g><path d="M 56.726562 6.289062 L 80.207031 -49.425781 L 71.441406 -49.425781 L 56.617188 -11.34375 L 40.664062 -52.007812 L 24.714844 -11.34375 L 9.886719 -49.425781 L 1.125 -49.425781 L 24.824219 6.289062 L 40.664062 -33.585938 Z M 56.726562 6.289062 "/></g></g></g><g fill="#ffffff" fill-opacity="1"><g transform="translate(458.496571, 510.197748)"><g><path d="M 47.742188 -24.714844 C 47.742188 -19.882812 46.054688 -15.613281 42.6875 -12.132812 C 39.316406 -8.539062 35.160156 -6.738281 30.328125 -6.738281 C 25.386719 -6.738281 21.230469 -8.539062 17.859375 -12.132812 C 14.492188 -15.613281 12.917969 -19.882812 12.917969 -24.714844 C 12.917969 -29.429688 14.492188 -33.699219 17.859375 -37.292969 C 21.230469 -40.890625 25.386719 -42.6875 30.328125 -42.6875 C 35.160156 -42.6875 39.316406 -40.890625 42.6875 -37.292969 C 46.054688 -33.699219 47.742188 -29.429688 47.742188 -24.714844 Z M 55.605469 0 L 55.605469 -49.425781 L 47.742188 -49.425781 L 47.742188 -40.890625 C 47.292969 -41.5625 46.730469 -42.125 46.28125 -42.6875 C 41.5625 -47.851562 35.832031 -50.550781 29.09375 -50.550781 C 22.242188 -50.550781 16.511719 -47.851562 11.792969 -42.6875 C 7.300781 -37.519531 5.054688 -31.566406 5.054688 -24.714844 C 5.054688 -17.75 7.300781 -11.792969 11.792969 -6.738281 C 16.511719 -1.460938 22.242188 1.125 29.09375 1.125 C 35.832031 1.125 41.5625 -1.460938 46.28125 -6.738281 C 46.730469 -7.1875 47.292969 -7.75 47.742188 -8.425781 L 47.742188 0 Z M 55.605469 0 "/></g></g></g><g fill="#ffffff" fill-opacity="1"><g transform="translate(544.988565, 510.197748)"><g><path d="M 33.8125 -39.203125 L 33.8125 -49.425781 C 32.238281 -50.101562 30.554688 -50.4375 28.871094 -50.4375 C 23.253906 -50.4375 19.207031 -47.292969 16.625 -41.226562 L 16.289062 -39.203125 L 16.289062 -49.425781 L 8.425781 -49.425781 L 8.425781 0 L 16.289062 0 L 16.289062 -24.714844 C 16.289062 -28.757812 17.1875 -32.351562 19.097656 -35.609375 C 19.996094 -37.292969 21.230469 -38.753906 22.691406 -39.878906 C 24.152344 -41 25.949219 -41.675781 27.96875 -41.675781 C 29.992188 -41.675781 31.902344 -40.777344 33.8125 -39.203125 Z M 33.8125 -39.203125 "/></g></g></g><g fill="#ffffff" fill-opacity="1"><g transform="translate(602.388867, 510.197748)"><g><path d="M 56.726562 -25.835938 C 56.726562 -32.578125 54.03125 -38.417969 48.863281 -43.472656 C 43.808594 -48.304688 37.742188 -50.773438 30.890625 -50.773438 C 23.703125 -50.773438 17.636719 -48.191406 12.582031 -43.136719 C 7.527344 -38.082031 5.054688 -32.015625 5.054688 -24.9375 C 5.054688 -17.75 7.527344 -11.683594 12.582031 -6.738281 C 14.941406 -4.382812 17.636719 -2.582031 20.78125 -1.234375 C 23.925781 0.113281 27.632812 0.785156 32.015625 0.785156 C 36.394531 0.785156 40.664062 -0.5625 44.933594 -3.257812 C 49.203125 -5.953125 52.347656 -9.773438 54.480469 -14.492188 L 45.496094 -14.492188 C 43.695312 -12.132812 41.5625 -10.335938 38.980469 -8.988281 C 36.394531 -7.636719 33.699219 -7.078125 30.890625 -7.078125 C 26.621094 -7.078125 22.804688 -8.425781 19.433594 -11.234375 C 16.0625 -13.929688 13.929688 -17.410156 13.253906 -21.679688 L 56.726562 -21.679688 Z M 48.414062 -28.421875 L 13.367188 -28.421875 C 13.816406 -30.441406 14.601562 -32.351562 15.726562 -34.148438 C 19.320312 -39.988281 24.375 -42.910156 30.890625 -42.910156 C 35.046875 -42.910156 38.753906 -41.5625 42.011719 -38.867188 C 45.382812 -36.058594 47.402344 -32.578125 48.414062 -28.421875 Z M 48.414062 -28.421875 "/></g></g></g><g fill="#ffffff" fill-opacity="1"><g transform="translate(686.072765, 510.197748)"><g/></g></g><g fill="#ffffff" fill-opacity="1"><g transform="translate(738.867779, 510.197748)"><g><path d="M 53.808594 0 L 53.808594 -7.300781 L 16.289062 -7.300781 L 16.289062 -34.484375 L 52.683594 -34.484375 L 52.683594 -41.898438 L 16.289062 -41.898438 L 16.289062 -69.085938 L 53.808594 -69.085938 L 53.808594 -76.386719 L 8.425781 -76.386719 L 8.425781 0 Z M 53.808594 0 "/></g></g></g><g fill="#ffffff" fill-opacity="1"><g transform="translate(823.562582, 510.197748)"><g><path d="M 42.574219 0 L 50.4375 0 L 50.4375 -30.890625 C 50.4375 -36.621094 48.863281 -41.226562 45.945312 -44.707031 C 44.371094 -46.503906 42.574219 -47.851562 40.441406 -48.863281 C 38.191406 -49.875 35.382812 -50.4375 31.902344 -50.4375 C 28.308594 -50.4375 25.273438 -49.425781 22.578125 -47.628906 C 19.996094 -45.945312 17.859375 -43.695312 16.289062 -40.890625 L 16.289062 -49.425781 L 8.425781 -49.425781 L 8.425781 0 L 16.289062 0 L 16.289062 -20.667969 C 16.289062 -26.960938 17.410156 -31.902344 19.769531 -35.609375 C 21.117188 -37.632812 22.804688 -39.316406 24.9375 -40.664062 C 26.960938 -41.898438 29.769531 -42.574219 33.136719 -42.574219 C 36.507812 -42.574219 38.867188 -41.339844 40.328125 -39.089844 C 41.789062 -36.84375 42.574219 -34.035156 42.574219 -30.890625 Z M 42.574219 0 "/></g></g></g><g fill="#ffffff" fill-opacity="1"><g transform="translate(903.202903, 510.197748)"><g><path d="M 48.414062 -24.714844 C 48.414062 -19.882812 46.730469 -15.613281 43.359375 -12.132812 C 39.988281 -8.539062 35.832031 -6.738281 31.003906 -6.738281 C 26.171875 -6.738281 22.015625 -8.539062 18.648438 -12.132812 C 15.277344 -15.613281 13.59375 -19.769531 13.59375 -24.714844 C 13.59375 -29.542969 15.277344 -33.699219 18.648438 -37.292969 C 22.015625 -40.890625 26.171875 -42.6875 31.003906 -42.6875 C 35.832031 -42.6875 39.988281 -40.890625 43.359375 -37.292969 C 46.730469 -33.699219 48.414062 -29.429688 48.414062 -24.714844 Z M 13.367188 6.738281 L 5.28125 6.738281 C 6.179688 12.019531 8.539062 16.625 12.582031 20.558594 C 17.523438 25.613281 23.589844 28.082031 30.667969 28.082031 C 37.632812 28.082031 43.695312 25.613281 48.753906 20.558594 C 53.695312 15.613281 56.277344 9.546875 56.277344 2.472656 L 56.277344 -49.425781 L 48.414062 -49.425781 L 48.414062 -41.113281 C 47.964844 -41.5625 47.515625 -42.125 47.066406 -42.6875 C 42.125 -47.851562 36.394531 -50.550781 29.878906 -50.550781 C 22.914062 -50.550781 17.1875 -47.851562 12.46875 -42.6875 C 7.976562 -37.519531 5.730469 -31.566406 5.730469 -24.714844 C 5.730469 -17.75 7.976562 -11.792969 12.46875 -6.738281 C 17.1875 -1.460938 22.914062 1.125 29.878906 1.125 C 36.621094 1.125 42.347656 -1.460938 47.066406 -6.738281 C 47.515625 -7.1875 47.964844 -7.75 48.414062 -8.199219 L 48.414062 2.472656 C 48.414062 7.414062 46.617188 11.570312 43.136719 15.050781 C 39.652344 18.535156 35.496094 20.21875 30.667969 20.21875 C 25.722656 20.21875 21.566406 18.535156 18.085938 15.050781 C 15.613281 12.582031 14.042969 9.886719 13.367188 6.738281 Z M 13.367188 6.738281 "/></g></g></g><g fill="#ffffff" fill-opacity="1"><g transform="translate(990.36885, 510.197748)"><g><path d="M 16.402344 -66.5 C 15.390625 -67.398438 14.152344 -67.960938 12.804688 -67.960938 C 11.457031 -67.960938 10.222656 -67.398438 9.324219 -66.5 C 8.3125 -65.488281 7.863281 -64.253906 7.863281 -62.90625 C 7.863281 -61.558594 8.3125 -60.324219 9.324219 -59.421875 C 10.222656 -58.414062 11.457031 -57.964844 12.804688 -57.964844 C 14.152344 -57.964844 15.390625 -58.414062 16.402344 -59.421875 C 17.300781 -60.324219 17.859375 -61.558594 17.859375 -62.90625 C 17.859375 -64.253906 17.300781 -65.488281 16.402344 -66.5 Z M 16.851562 0 L 16.851562 -49.425781 L 8.988281 -49.425781 L 8.988281 0 Z M 16.851562 0 "/></g></g></g><g fill="#ffffff" fill-opacity="1"><g transform="translate(1038.558576, 510.197748)"><g><path d="M 42.574219 0 L 50.4375 0 L 50.4375 -30.890625 C 50.4375 -36.621094 48.863281 -41.226562 45.945312 -44.707031 C 44.371094 -46.503906 42.574219 -47.851562 40.441406 -48.863281 C 38.191406 -49.875 35.382812 -50.4375 31.902344 -50.4375 C 28.308594 -50.4375 25.273438 -49.425781 22.578125 -47.628906 C 19.996094 -45.945312 17.859375 -43.695312 16.289062 -40.890625 L 16.289062 -49.425781 L 8.425781 -49.425781 L 8.425781 0 L 16.289062 0 L 16.289062 -20.667969 C 16.289062 -26.960938 17.410156 -31.902344 19.769531 -35.609375 C 21.117188 -37.632812 22.804688 -39.316406 24.9375 -40.664062 C 26.960938 -41.898438 29.769531 -42.574219 33.136719 -42.574219 C 36.507812 -42.574219 38.867188 -41.339844 40.328125 -39.089844 C 41.789062 -36.84375 42.574219 -34.035156 42.574219 -30.890625 Z M 42.574219 0 "/></g></g></g><g fill="#ffffff" fill-opacity="1"><g transform="translate(1118.198896, 510.197748)"><g><path d="M 56.726562 -25.835938 C 56.726562 -32.578125 54.03125 -38.417969 48.863281 -43.472656 C 43.808594 -48.304688 37.742188 -50.773438 30.890625 -50.773438 C 23.703125 -50.773438 17.636719 -48.191406 12.582031 -43.136719 C 7.527344 -38.082031 5.054688 -32.015625 5.054688 -24.9375 C 5.054688 -17.75 7.527344 -11.683594 12.582031 -6.738281 C 14.941406 -4.382812 17.636719 -2.582031 20.78125 -1.234375 C 23.925781 0.113281 27.632812 0.785156 32.015625 0.785156 C 36.394531 0.785156 40.664062 -0.5625 44.933594 -3.257812 C 49.203125 -5.953125 52.347656 -9.773438 54.480469 -14.492188 L 45.496094 -14.492188 C 43.695312 -12.132812 41.5625 -10.335938 38.980469 -8.988281 C 36.394531 -7.636719 33.699219 -7.078125 30.890625 -7.078125 C 26.621094 -7.078125 22.804688 -8.425781 19.433594 -11.234375 C 16.0625 -13.929688 13.929688 -17.410156 13.253906 -21.679688 L 56.726562 -21.679688 Z M 48.414062 -28.421875 L 13.367188 -28.421875 C 13.816406 -30.441406 14.601562 -32.351562 15.726562 -34.148438 C 19.320312 -39.988281 24.375 -42.910156 30.890625 -42.910156 C 35.046875 -42.910156 38.753906 -41.5625 42.011719 -38.867188 C 45.382812 -36.058594 47.402344 -32.578125 48.414062 -28.421875 Z M 48.414062 -28.421875 "/></g></g></g><g fill="#ffffff" fill-opacity="1"><g transform="translate(1201.88284, 510.197748)"><g><path d="M 56.726562 -25.835938 C 56.726562 -32.578125 54.03125 -38.417969 48.863281 -43.472656 C 43.808594 -48.304688 37.742188 -50.773438 30.890625 -50.773438 C 23.703125 -50.773438 17.636719 -48.191406 12.582031 -43.136719 C 7.527344 -38.082031 5.054688 -32.015625 5.054688 -24.9375 C 5.054688 -17.75 7.527344 -11.683594 12.582031 -6.738281 C 14.941406 -4.382812 17.636719 -2.582031 20.78125 -1.234375 C 23.925781 0.113281 27.632812 0.785156 32.015625 0.785156 C 36.394531 0.785156 40.664062 -0.5625 44.933594 -3.257812 C 49.203125 -5.953125 52.347656 -9.773438 54.480469 -14.492188 L 45.496094 -14.492188 C 43.695312 -12.132812 41.5625 -10.335938 38.980469 -8.988281 C 36.394531 -7.636719 33.699219 -7.078125 30.890625 -7.078125 C 26.621094 -7.078125 22.804688 -8.425781 19.433594 -11.234375 C 16.0625 -13.929688 13.929688 -17.410156 13.253906 -21.679688 L 56.726562 -21.679688 Z M 48.414062 -28.421875 L 13.367188 -28.421875 C 13.816406 -30.441406 14.601562 -32.351562 15.726562 -34.148438 C 19.320312 -39.988281 24.375 -42.910156 30.890625 -42.910156 C 35.046875 -42.910156 38.753906 -41.5625 42.011719 -38.867188 C 45.382812 -36.058594 47.402344 -32.578125 48.414062 -28.421875 Z M 48.414062 -28.421875 "/></g></g></g><g fill="#ffffff" fill-opacity="1"><g transform="translate(1285.566783, 510.197748)"><g><path d="M 33.8125 -39.203125 L 33.8125 -49.425781 C 32.238281 -50.101562 30.554688 -50.4375 28.871094 -50.4375 C 23.253906 -50.4375 19.207031 -47.292969 16.625 -41.226562 L 16.289062 -39.203125 L 16.289062 -49.425781 L 8.425781 -49.425781 L 8.425781 0 L 16.289062 0 L 16.289062 -24.714844 C 16.289062 -28.757812 17.1875 -32.351562 19.097656 -35.609375 C 19.996094 -37.292969 21.230469 -38.753906 22.691406 -39.878906 C 24.152344 -41 25.949219 -41.675781 27.96875 -41.675781 C 29.992188 -41.675781 31.902344 -40.777344 33.8125 -39.203125 Z M 33.8125 -39.203125 "/></g></g></g></svg>