<svg xmlns="http://www.w3.org/2000/svg" xmlns:xlink="http://www.w3.org/1999/xlink" width="1920" zoomAndPan="magnify" viewBox="0 0 1440 809.999993" height="1080" preserveAspectRatio="xMidYMid meet" version="1.0"><defs><g/><clipPath id="92c0da129f"><path d="M 26.457031 453 L 1413.394531 453 L 1413.394531 462 L 26.457031 462 Z M 26.457031 453 " clip-rule="nonzero"/></clipPath><clipPath id="1dcdf8b603"><path d="M 1305 198.371094 L 1375 198.371094 L 1375 326 L 1305 326 Z M 1305 198.371094 " clip-rule="nonzero"/></clipPath><clipPath id="2547764534"><path d="M 1311 198.371094 L 1384 198.371094 L 1384 267 L 1311 267 Z M 1311 198.371094 " clip-rule="nonzero"/></clipPath><clipPath id="e1f612fa4a"><path d="M 1302 198.371094 L 1351 198.371094 L 1351 233 L 1302 233 Z M 1302 198.371094 " clip-rule="nonzero"/></clipPath><clipPath id="643f9fcca4"><path d="M 1327 198.371094 L 1358 198.371094 L 1358 216 L 1327 216 Z M 1327 198.371094 " clip-rule="nonzero"/></clipPath><clipPath id="4a23e57515"><path d="M 1328 267 L 1407.863281 267 L 1407.863281 436 L 1328 436 Z M 1328 267 " clip-rule="nonzero"/></clipPath><clipPath id="ffbd8fc8d4"><path d="M 1362 281 L 1407.863281 281 L 1407.863281 436 L 1362 436 Z M 1362 281 " clip-rule="nonzero"/></clipPath><clipPath id="4d4fe4adde"><path d="M 1212 536 L 1246 536 L 1246 611.175781 L 1212 611.175781 Z M 1212 536 " clip-rule="nonzero"/></clipPath></defs><g clip-path="url(#92c0da129f)"><path stroke-linecap="round" transform="matrix(1.273708, 0, 0, 1.274229, 26.45726, 198.403793)" fill="none" stroke-linejoin="round" d="M 3.170926 203.170154 L 1085.726337 203.170154 " stroke="#788f9c" stroke-width="6.34" stroke-opacity="1" stroke-miterlimit="4"/></g><g clip-path="url(#1dcdf8b603)"><path fill="#593313" d="M 1305.015625 238.386719 C 1304.636719 261.515625 1358.828125 307.886719 1323.632812 319.359375 C 1349.921875 333.335938 1351.402344 321.417969 1362.8125 303.324219 C 1374.226562 285.234375 1376.890625 262.4375 1372.625 241.472656 C 1370.21875 229.652344 1370.191406 212.570312 1361.285156 204.441406 C 1352.199219 196.144531 1332.933594 196.847656 1322.082031 204.4375 C 1310.683594 212.40625 1305.230469 225.257812 1305.015625 238.386719 Z M 1305.015625 238.386719 " fill-opacity="1" fill-rule="nonzero"/></g><path fill="#f5bd95" d="M 1360.21875 209.179688 C 1351.609375 207.617188 1342.585938 208.273438 1334.125 210.285156 C 1327.203125 211.933594 1319.546875 214.71875 1314.03125 219.628906 C 1312.140625 228.769531 1314.015625 238.273438 1317.773438 246.695312 C 1320.011719 251.714844 1330.171875 270.128906 1340.488281 273.640625 C 1354.078125 278.269531 1367.183594 251.089844 1368.300781 242.710938 C 1369.742188 231.890625 1369.316406 224.476562 1364.105469 215.0625 C 1362.972656 213.011719 1361.644531 211.054688 1360.21875 209.179688 Z M 1360.21875 209.179688 " fill-opacity="1" fill-rule="nonzero"/><path fill="#f5bd95" d="M 1351.570312 266.15625 C 1351.570312 266.15625 1379.210938 293.800781 1379.210938 293.800781 C 1379.210938 293.800781 1390.535156 272.699219 1390.535156 272.699219 C 1390.535156 272.699219 1365.332031 250.523438 1365.332031 250.523438 Z M 1351.570312 266.15625 " fill-opacity="1" fill-rule="nonzero"/><g clip-path="url(#2547764534)"><path fill="#593313" d="M 1321.28125 206.253906 C 1314.761719 211.574219 1309.113281 218.609375 1312.230469 226.03125 C 1314.582031 231.632812 1348.867188 266.308594 1383.5 266.507812 C 1381.300781 263.523438 1375.921875 252.453125 1377.003906 242.332031 C 1378.089844 232.210938 1377.792969 221.511719 1372.480469 212.597656 C 1362.5625 195.957031 1336.175781 194.09375 1321.28125 206.253906 Z M 1321.28125 206.253906 " fill-opacity="1" fill-rule="nonzero"/></g><path fill="#593313" d="M 1314.664062 223.730469 C 1314.664062 223.730469 1321.789062 242.550781 1329.40625 247.496094 C 1325.375 245.785156 1316.015625 238.144531 1312.507812 228.433594 C 1308.996094 218.726562 1314.664062 223.730469 1314.664062 223.730469 Z M 1314.664062 223.730469 " fill-opacity="1" fill-rule="nonzero"/><path fill="#ffffff" d="M 1339.160156 261.480469 C 1339.160156 261.480469 1337.464844 263.382812 1333.492188 265.855469 C 1336.378906 268.289062 1340.921875 268.617188 1339.160156 261.480469 Z M 1339.160156 261.480469 " fill-opacity="1" fill-rule="nonzero"/><path fill="#593313" d="M 1315.59375 218.816406 C 1315.59375 218.816406 1316.5625 208.453125 1336.597656 203.238281 " fill-opacity="1" fill-rule="nonzero"/><g clip-path="url(#e1f612fa4a)"><path stroke-linecap="butt" transform="matrix(-0.941429, 0.19093, 0.190852, 0.941814, 1326.095796, 211.028138)" fill="none" stroke-linejoin="miter" d="M 12.325312 5.770778 C 12.325312 5.770778 9.194274 -4.598012 -12.325451 -5.772437 " stroke="#94784e" stroke-width="1" stroke-opacity="1" stroke-miterlimit="10"/></g><path fill="#593313" d="M 1340.925781 202.359375 C 1340.925781 202.359375 1343.691406 202.28125 1343.691406 202.28125 " fill-opacity="1" fill-rule="nonzero"/><g clip-path="url(#643f9fcca4)"><path stroke-linecap="butt" transform="matrix(-0.941429, 0.19093, 0.190852, 0.941814, 1342.308443, 202.319746)" fill="none" stroke-linejoin="miter" d="M 1.4189 -0.24557 C 1.4189 -0.24557 -1.418974 0.246788 -1.418974 0.246788 " stroke="#94784e" stroke-width="1" stroke-opacity="1" stroke-miterlimit="10"/></g><path stroke-linecap="round" transform="matrix(-0.941429, 0.19093, 0.190852, 0.941814, 1329.148523, 251.72245)" fill="none" stroke-linejoin="miter" d="M 1.510138 -3.010146 C 1.510138 -3.010146 -1.509878 3.010532 -1.509878 3.010532 " stroke="#607d8b" stroke-width="1.318" stroke-opacity="1" stroke-miterlimit="10"/><g clip-path="url(#4a23e57515)"><path fill="#ff9800" d="M 1367.878906 435.597656 C 1358.601562 429.941406 1347.222656 422.226562 1340.34375 413.804688 C 1334.390625 406.527344 1330.386719 398.097656 1328.269531 389.070312 C 1331.65625 387.082031 1335.746094 379.191406 1336.183594 376.835938 C 1337.324219 370.707031 1349.554688 353.015625 1348.214844 346.917969 C 1345.972656 336.714844 1337.503906 316.917969 1344.234375 310.589844 C 1354.351562 301.082031 1362.148438 288.601562 1365.90625 275.242188 C 1365.460938 276.8125 1382.3125 268.316406 1382.613281 268.203125 C 1389.65625 265.492188 1397.125 275.816406 1400.578125 281.1875 C 1408.746094 293.90625 1408.550781 310.144531 1407.070312 325.1875 C 1403.847656 357.878906 1395.632812 390.566406 1378.707031 418.710938 C 1375.238281 424.476562 1372.191406 431.117188 1367.878906 435.597656 Z M 1367.878906 435.597656 " fill-opacity="1" fill-rule="nonzero"/></g><g clip-path="url(#ffbd8fc8d4)"><path fill="#f57c00" d="M 1364.503906 429.886719 C 1371.269531 418.429688 1376.726562 406.261719 1381.996094 394.0625 C 1387.800781 380.625 1393.285156 367.082031 1396.757812 352.824219 C 1398.542969 345.496094 1399.652344 338.09375 1400.691406 330.632812 C 1401.75 323.03125 1402.800781 315.398438 1402.597656 307.703125 C 1402.441406 301.625 1402.203125 295.480469 1401.773438 289.410156 C 1401.59375 286.894531 1401.355469 284.3125 1400.921875 281.769531 C 1408.722656 294.402344 1408.527344 310.367188 1407.070312 325.1875 C 1403.847656 357.878906 1395.632812 390.5625 1378.707031 418.710938 C 1375.238281 424.476562 1372.191406 431.117188 1367.878906 435.597656 C 1366.28125 434.621094 1364.605469 433.5625 1362.914062 432.46875 C 1363.445312 431.609375 1363.988281 430.757812 1364.503906 429.886719 Z M 1364.503906 429.886719 " fill-opacity="1" fill-rule="nonzero"/></g><path fill="#7b1fa2" d="M 1165.582031 414.125 C 1183.4375 391.921875 1200.960938 369.476562 1219.007812 347.40625 C 1238.753906 352.941406 1258.117188 359.640625 1276.949219 367.449219 C 1286.472656 371.402344 1319.511719 386.886719 1328.316406 389.070312 C 1328.832031 389.070312 1329.328125 388.9375 1329.8125 388.71875 C 1330.660156 392.125 1331.835938 395.460938 1333.371094 398.675781 C 1339.089844 410.636719 1349.003906 420.480469 1360.179688 428.265625 C 1363.339844 430.46875 1366.628906 432.515625 1370.003906 434.433594 C 1361.636719 442.414062 1351.425781 447.792969 1337.96875 448.652344 C 1319.003906 449.859375 1299.765625 443.394531 1284.574219 433.101562 C 1262.742188 418.316406 1247.683594 396.679688 1233.128906 375.546875 C 1232.570312 377.332031 1231.917969 379.09375 1231.183594 380.824219 C 1226.316406 392.238281 1217.695312 401.898438 1208.0625 410.152344 C 1200.605469 416.542969 1192.429688 422.191406 1183.976562 427.394531 C 1182.523438 428.289062 1180.765625 429.1875 1178.875 430.117188 C 1172.972656 426.398438 1167.550781 421.945312 1163.597656 416.570312 C 1164.253906 415.761719 1164.910156 414.960938 1165.582031 414.125 Z M 1165.582031 414.125 " fill-opacity="1" fill-rule="nonzero"/><path fill="#f5bd95" d="M 1103.453125 452.550781 C 1114.378906 448.550781 1130.605469 443.414062 1141.171875 438.234375 C 1152.652344 432.609375 1156.105469 425.785156 1163.601562 416.574219 C 1167.554688 421.945312 1172.972656 426.398438 1178.875 430.117188 C 1170.914062 434.039062 1160.5625 438.605469 1160.117188 446.609375 C 1160.011719 448.496094 1160.367188 450.574219 1159.210938 452.132812 C 1157.765625 454.09375 1154.707031 454.425781 1152.148438 454.34375 C 1136.359375 453.414062 1119.746094 454.765625 1104.035156 454.230469 C 1103.351562 454.207031 1102.429688 453.941406 1102.523438 453.3125 C 1102.582031 452.914062 1103.046875 452.695312 1103.453125 452.550781 Z M 1103.453125 452.550781 " fill-opacity="1" fill-rule="nonzero"/><path fill="#6a1b99" d="M 1175.1875 425.910156 C 1187.613281 421.125 1198.425781 413.417969 1207.8125 404.566406 C 1212.476562 400.164062 1227.671875 387.742188 1232.625 376.90625 C 1232.175781 378.222656 1231.730469 379.539062 1231.179688 380.824219 C 1226.316406 392.238281 1217.695312 401.898438 1208.0625 410.152344 C 1200.601562 416.542969 1192.429688 422.191406 1183.976562 427.394531 C 1182.519531 428.292969 1180.765625 429.1875 1178.875 430.117188 C 1177.058594 428.972656 1175.316406 427.734375 1173.621094 426.445312 C 1174.140625 426.257812 1174.671875 426.105469 1175.1875 425.910156 Z M 1175.1875 425.910156 " fill-opacity="1" fill-rule="nonzero"/><path fill="#6a1b99" d="M 1283.828125 418.351562 C 1292.546875 421.78125 1294.769531 428.78125 1303.484375 432.277344 C 1303.234375 434.105469 1302.910156 435.921875 1302.441406 437.710938 C 1302.074219 439.136719 1301.609375 440.589844 1300.992188 441.976562 C 1295.175781 439.535156 1289.644531 436.539062 1284.574219 433.101562 C 1269.75 423.0625 1248.042969 395.929688 1237.503906 381.875 C 1246.65625 391.011719 1267.496094 411.925781 1283.828125 418.351562 Z M 1283.828125 418.351562 " fill-opacity="1" fill-rule="nonzero"/><path fill="#8e24aa" d="M 1187.757812 437.382812 C 1187.585938 460.0625 1193.296875 482.335938 1200.464844 503.6875 C 1204.078125 514.445312 1208.113281 525.050781 1212.140625 535.664062 C 1212.332031 536.164062 1212.488281 536.667969 1212.664062 537.171875 C 1215.121094 536.796875 1217.585938 536.5 1220.078125 536.386719 C 1223.910156 536.222656 1227.738281 536.367188 1231.546875 536.6875 C 1231.578125 535.832031 1231.609375 534.972656 1231.632812 534.121094 C 1231.632812 534.121094 1231.640625 534.121094 1231.632812 534.113281 C 1231.640625 534.105469 1231.640625 534.082031 1231.632812 534.066406 C 1231.640625 534.023438 1231.640625 533.988281 1231.640625 533.941406 C 1232.152344 502.308594 1213.054688 458.304688 1212.765625 457.628906 C 1212.765625 457.628906 1213.363281 458.242188 1213.363281 458.242188 C 1213.199219 458.007812 1213.050781 457.820312 1212.933594 457.714844 C 1212.863281 457.664062 1212.808594 457.625 1212.761719 457.625 C 1212.761719 457.625 1209.59375 450.933594 1209.59375 450.933594 C 1296.179688 456.660156 1350.039062 436.109375 1361.980469 430.960938 C 1357.332031 428.058594 1351.390625 423.925781 1348.519531 420.28125 C 1340.324219 409.867188 1332.035156 405.363281 1318.710938 406.105469 C 1280.382812 408.265625 1240.835938 413.757812 1202.703125 418.191406 C 1199.332031 418.585938 1195.789062 419.046875 1193.070312 421.078125 C 1188.304688 424.625 1187.804688 431.445312 1187.757812 437.382812 Z M 1187.757812 437.382812 " fill-opacity="1" fill-rule="nonzero"/><g clip-path="url(#4d4fe4adde)"><path fill="#f5bd95" d="M 1221.667969 567.878906 C 1218.960938 557.597656 1216.347656 547.136719 1212.691406 537.171875 C 1215.136719 536.792969 1217.59375 536.5 1220.082031 536.390625 C 1223.910156 536.226562 1227.734375 536.363281 1231.546875 536.691406 C 1231.546875 536.679688 1231.546875 536.671875 1231.546875 536.664062 C 1231.386719 541.464844 1231.261719 546.257812 1231.601562 551.003906 C 1231.878906 554.9375 1233.460938 558.964844 1236.636719 561.296875 C 1239.539062 563.429688 1243.757812 564.261719 1245.195312 567.566406 C 1246.089844 569.628906 1245.550781 572.003906 1244.996094 574.183594 C 1244.515625 574.183594 1241.511719 587.46875 1241.316406 588.753906 C 1240.554688 593.753906 1240.585938 599.039062 1240.207031 604.085938 C 1240.101562 605.476562 1239.976562 606.933594 1239.222656 608.105469 C 1237.671875 610.519531 1222.882812 613.066406 1222.082031 609.011719 C 1221.734375 607.269531 1228.378906 605.578125 1228.972656 603.902344 C 1230.46875 599.664062 1228.460938 595 1227.394531 590.636719 C 1225.535156 583.039062 1223.65625 575.441406 1221.667969 567.878906 Z M 1221.667969 567.878906 " fill-opacity="1" fill-rule="nonzero"/></g><path fill="#7b1fa2" d="M 1208.734375 449.960938 C 1211.898438 456.648438 1212.757812 457.625 1212.757812 457.625 C 1237.542969 459.414062 1262.410156 461.207031 1287.203125 459.648438 C 1301.707031 458.742188 1321.109375 457.914062 1335.148438 454.078125 C 1341.890625 452.242188 1360.59375 448.726562 1368.351562 434.714844 C 1368.351562 434.714844 1368.34375 434.707031 1368.34375 434.707031 C 1368.148438 434.605469 1363.566406 431.933594 1360.117188 429.773438 C 1348.175781 434.921875 1295.320312 455.6875 1208.734375 449.960938 Z M 1208.734375 449.960938 " fill-opacity="1" fill-rule="nonzero"/><path fill="#7b1fa2" d="M 1231.640625 533.941406 C 1231.773438 529.917969 1231.875 525.90625 1231.703125 521.910156 C 1231.234375 511.308594 1230.089844 500.542969 1228.816406 490.066406 C 1227.613281 480.140625 1220.269531 469.230469 1214.972656 461.007812 C 1214.761719 460.683594 1213.972656 459.132812 1213.371094 458.246094 C 1213.371094 458.246094 1213.363281 458.242188 1213.363281 458.242188 C 1213.363281 458.242188 1212.769531 457.628906 1212.769531 457.628906 C 1213.058594 458.304688 1232.15625 502.308594 1231.640625 533.941406 Z M 1231.640625 533.941406 " fill-opacity="1" fill-rule="nonzero"/><path stroke-linecap="butt" transform="matrix(-0.96058, 0, 0, 0.960972, 1227.270184, 419.742599)" fill="none" stroke-linejoin="miter" d="M -15.753155 -1.760527 C -15.753155 -1.760527 15.754515 1.75967 15.754515 1.75967 " stroke="#b967c7" stroke-width="1" stroke-opacity="1" stroke-miterlimit="10"/><path stroke-linecap="butt" transform="matrix(-0.96058, 0, 0, 0.960972, 1202.745642, 422.845535)" fill="none" stroke-linejoin="miter" d="M -2.936523 -0.392087 C -2.936523 -0.392087 2.935582 0.392437 2.935582 0.392437 " stroke="#b967c7" stroke-width="1" stroke-opacity="1" stroke-miterlimit="10"/><path fill="#f5bd95" d="M 1374.292969 292.289062 C 1356.984375 317.304688 1341.523438 344.90625 1324.210938 369.925781 C 1313.308594 362.726562 1277.371094 338.859375 1263.015625 342.019531 C 1255.546875 343.664062 1253.699219 345.003906 1246.28125 346.894531 C 1254.535156 350.5 1257.710938 350.628906 1266.71875 350.621094 C 1285.914062 350.597656 1303.199219 375.238281 1311.175781 381.589844 C 1314.839844 384.507812 1318.6875 387.511719 1323.269531 388.464844 C 1332.324219 390.34375 1340.832031 383.773438 1347.238281 377.109375 C 1361.496094 362.277344 1373.691406 344.089844 1383.109375 325.804688 C 1388.179688 315.960938 1390.425781 308.683594 1392.179688 298.523438 C 1394.386719 285.699219 1379.644531 284.554688 1374.292969 292.289062 Z M 1374.292969 292.289062 " fill-opacity="1" fill-rule="nonzero"/><path stroke-linecap="butt" transform="matrix(-0.960579, 0.00137531, 0.00137475, 0.960971, 1344.174203, 349.146624)" fill="none" stroke-linejoin="miter" d="M -7.565519 -11.417776 C -7.565519 -11.417776 7.566298 11.417484 7.566298 11.417484 " stroke="#eceff1" stroke-width="1" stroke-opacity="1" stroke-miterlimit="10"/><path stroke-linecap="butt" transform="matrix(-0.960579, 0.00137531, 0.00137475, 0.960971, 1333.821491, 364.576055)" fill="none" stroke-linejoin="miter" d="M -1.107304 -1.695388 C -1.107304 -1.695388 1.109758 1.695628 1.109758 1.695628 " stroke="#eceff1" stroke-width="1" stroke-opacity="1" stroke-miterlimit="10"/><path stroke-linecap="butt" transform="matrix(-0.96058, 0, 0, 0.960972, 1251.066615, 325.283792)" fill="none" stroke-linejoin="miter" d="M 36.440619 -40.854817 C 36.440619 -40.854817 19.914139 20.850254 19.914139 20.850254 C 19.914139 20.850254 -36.440184 40.853591 -36.440184 40.853591 " stroke="#788f9c" stroke-width="5.699" stroke-opacity="1" stroke-miterlimit="10"/><g fill="#788f9c" fill-opacity="1"><g transform="translate(39.44012, 325.611722)"><g><path d="M 32.363281 -9.695312 L 14.96875 -9.695312 L 14.96875 -19.460938 L 31.648438 -19.460938 L 31.648438 -29.152344 L 14.96875 -29.152344 L 14.96875 -38.777344 L 32.363281 -38.777344 L 32.363281 -48.472656 L 4.277344 -48.472656 L 4.277344 0 L 32.363281 0 Z M 32.363281 -9.695312 "/></g></g></g><g fill="#788f9c" fill-opacity="1"><g transform="translate(90.335322, 325.611722)"><g><path d="M 14.96875 -17.320312 L 15.039062 -17.320312 L 26.589844 0 L 40.132812 0 L 26.230469 -17.820312 C 32.363281 -19.316406 37.28125 -24.734375 37.28125 -32.933594 C 37.28125 -42.128906 30.292969 -48.472656 22.453125 -48.472656 L 4.277344 -48.472656 L 4.277344 0 L 14.96875 0 Z M 20.671875 -40.058594 C 23.808594 -40.058594 27.085938 -37.351562 27.085938 -32.933594 C 27.085938 -28.296875 23.808594 -25.734375 20.671875 -25.734375 L 14.96875 -25.734375 L 14.96875 -40.058594 Z M 20.671875 -40.058594 "/></g></g></g><g fill="#788f9c" fill-opacity="1"><g transform="translate(143.867926, 325.611722)"><g><path d="M 14.96875 0 L 14.96875 -48.472656 L 4.277344 -48.472656 L 4.277344 0 Z M 14.96875 0 "/></g></g></g><g fill="#788f9c" fill-opacity="1"><g transform="translate(177.370494, 325.611722)"><g><path d="M 42.339844 0 L 42.339844 -48.472656 L 31.648438 -48.472656 L 31.648438 -18.246094 L 14.96875 -48.472656 L 4.277344 -48.472656 L 4.277344 0 L 14.96875 0 L 14.96875 -30.222656 L 31.648438 0 Z M 42.339844 0 "/></g></g></g><g fill="#788f9c" fill-opacity="1"><g transform="translate(238.245062, 325.611722)"><g/></g></g><g fill="#788f9c" fill-opacity="1"><g transform="translate(270.322, 325.611722)"><g><path d="M 64.722656 0 L 55.3125 -48.472656 L 42.625 -48.472656 L 32.574219 -14.46875 L 22.453125 -48.472656 L 9.765625 -48.472656 L 0.355469 0 L 12.117188 0 L 17.820312 -33.429688 L 27.300781 0 L 37.777344 0 L 47.257812 -33.429688 L 52.960938 0 Z M 64.722656 0 "/></g></g></g><g fill="#788f9c" fill-opacity="1"><g transform="translate(349.658407, 325.611722)"><g><path d="M 39.277344 -16.464844 C 37.28125 -12.1875 32.433594 -9.265625 27.441406 -9.265625 C 19.601562 -9.265625 13.328125 -15.96875 13.328125 -24.234375 C 13.328125 -32.433594 19.601562 -39.203125 27.441406 -39.203125 C 32.363281 -39.203125 37.207031 -36.496094 39.203125 -32.148438 L 51.109375 -32.148438 C 47.828125 -42.054688 38.492188 -49.183594 27.441406 -49.183594 C 13.6875 -49.183594 2.496094 -37.992188 2.496094 -24.234375 C 2.496094 -10.476562 13.6875 0.710938 27.441406 0.710938 C 38.492188 0.710938 47.902344 -6.488281 51.179688 -16.464844 Z M 39.277344 -16.464844 "/></g></g></g><g fill="#788f9c" fill-opacity="1"><g transform="translate(416.877013, 325.611722)"><g><path d="M 4.277344 0 L 32.363281 0 L 32.363281 -9.695312 L 14.96875 -9.695312 L 14.96875 -48.472656 L 4.277344 -48.472656 Z M 4.277344 0 "/></g></g></g><g fill="#788f9c" fill-opacity="1"><g transform="translate(465.990178, 325.611722)"><g><path d="M 30.652344 -18.53125 L 18.390625 -18.53125 L 24.519531 -35.785156 Z M 48.757812 0 L 29.082031 -48.472656 L 20.03125 -48.472656 L 0.355469 0 L 11.832031 0 L 15.324219 -9.765625 L 33.789062 -9.765625 L 37.28125 0 Z M 48.757812 0 "/></g></g></g><g fill="#788f9c" fill-opacity="1"><g transform="translate(529.359607, 325.611722)"><g><path d="M 32.574219 -48.472656 L 32.574219 -20.457031 C 32.574219 -13.757812 30.578125 -9.980469 23.238281 -9.980469 C 15.96875 -9.980469 13.898438 -13.757812 13.898438 -20.457031 L 13.898438 -48.472656 L 3.207031 -48.472656 L 3.207031 -18.890625 C 3.207031 -5.988281 10.621094 0.710938 23.238281 0.710938 C 35.855469 0.710938 43.269531 -5.988281 43.269531 -18.890625 L 43.269531 -48.472656 Z M 32.574219 -48.472656 "/></g></g></g><g fill="#788f9c" fill-opacity="1"><g transform="translate(590.091598, 325.611722)"><g><path d="M 28.511719 -39.203125 C 33.21875 -39.203125 38.0625 -37.28125 40.417969 -32.148438 L 52.179688 -32.148438 C 48.828125 -42.199219 39.203125 -49.183594 28.511719 -49.183594 C 14.828125 -49.183594 3.5625 -37.921875 3.5625 -24.234375 C 3.5625 -10.550781 14.828125 0.710938 28.511719 0.710938 C 42.339844 0.710938 53.390625 -10.476562 53.390625 -24.234375 L 53.390625 -25.875 L 29.511719 -25.875 L 29.511719 -17.820312 L 41.84375 -17.820312 C 39.203125 -10.476562 33.21875 -8.980469 28.511719 -8.980469 C 20.8125 -8.980469 14.398438 -15.894531 14.398438 -24.09375 C 14.398438 -32.289062 20.8125 -39.203125 28.511719 -39.203125 Z M 28.511719 -39.203125 "/></g></g></g><g fill="#788f9c" fill-opacity="1"><g transform="translate(660.232726, 325.611722)"><g><path d="M 30.9375 -48.472656 L 30.9375 -29.152344 L 14.96875 -29.152344 L 14.96875 -48.472656 L 4.277344 -48.472656 L 4.277344 0 L 14.96875 0 L 14.96875 -19.460938 L 30.9375 -19.460938 L 30.9375 0 L 42.339844 0 L 42.339844 -48.472656 Z M 30.9375 -48.472656 "/></g></g></g><g fill="#788f9c" fill-opacity="1"><g transform="translate(721.10731, 325.611722)"><g><path d="M 4.277344 0 L 32.363281 0 L 32.363281 -9.695312 L 14.96875 -9.695312 L 14.96875 -48.472656 L 4.277344 -48.472656 Z M 4.277344 0 "/></g></g></g><g fill="#788f9c" fill-opacity="1"><g transform="translate(770.220441, 325.611722)"><g><path d="M 14.96875 0 L 14.96875 -48.472656 L 4.277344 -48.472656 L 4.277344 0 Z M 14.96875 0 "/></g></g></g><g fill="#788f9c" fill-opacity="1"><g transform="translate(803.723041, 325.611722)"><g><path d="M 42.339844 0 L 42.339844 -48.472656 L 31.648438 -48.472656 L 31.648438 -18.246094 L 14.96875 -48.472656 L 4.277344 -48.472656 L 4.277344 0 L 14.96875 0 L 14.96875 -30.222656 L 31.648438 0 Z M 42.339844 0 "/></g></g></g><g fill="#788f9c" fill-opacity="1"><g transform="translate(39.44012, 378.227708)"><g><path d="M 10.414062 -12.671875 C 13.898438 -11.839844 16.277344 -10.929688 17.542969 -9.898438 C 18.414062 -9.1875 18.847656 -8.277344 18.847656 -7.167969 C 18.847656 -6.058594 18.613281 -5.148438 18.136719 -4.515625 C 16.949219 -2.851562 14.808594 -2.019531 11.800781 -2.019531 C 7.601562 -2.019531 5.226562 -3.445312 4.710938 -6.296875 L 1.464844 -6.296875 C 2.414062 -1.742188 5.859375 0.515625 11.800781 0.515625 C 14.453125 0.515625 16.671875 -0.0390625 18.453125 -1.226562 C 20.589844 -2.613281 21.699219 -4.671875 21.699219 -7.367188 C 21.699219 -9.582031 20.828125 -11.285156 19.085938 -12.472656 C 17.859375 -13.34375 15.878906 -14.136719 13.148438 -14.851562 C 10.375 -15.5625 8.59375 -16.15625 7.761719 -16.59375 C 5.941406 -17.503906 5.027344 -18.769531 5.070312 -20.433594 C 5.070312 -21.304688 5.226562 -22.058594 5.625 -22.613281 C 6.652344 -24.15625 8.472656 -24.949219 11.085938 -24.949219 C 14.769531 -24.949219 16.871094 -23.757812 17.421875 -21.464844 L 20.433594 -21.464844 C 19.445312 -25.34375 16.316406 -27.324219 11.085938 -27.324219 C 8.710938 -27.324219 6.613281 -26.691406 4.871094 -25.421875 C 3.089844 -24.15625 2.179688 -22.292969 2.179688 -19.761719 C 2.179688 -16.316406 4.949219 -13.9375 10.414062 -12.671875 Z M 10.414062 -12.671875 "/></g></g></g><g fill="#788f9c" fill-opacity="1"><g transform="translate(70.088881, 378.227708)"><g><path d="M 17.226562 -8.792969 C 17.226562 -7.046875 16.59375 -5.582031 15.363281 -4.355469 C 14.097656 -3.089844 12.632812 -2.496094 10.890625 -2.496094 C 9.148438 -2.496094 7.644531 -3.089844 6.414062 -4.355469 C 5.148438 -5.582031 4.554688 -7.046875 4.554688 -8.792969 C 4.554688 -10.535156 5.148438 -12 6.414062 -13.265625 C 7.644531 -14.492188 9.148438 -15.128906 10.890625 -15.128906 C 12.632812 -15.128906 14.097656 -14.492188 15.363281 -13.265625 C 16.59375 -12 17.226562 -10.535156 17.226562 -8.792969 Z M 19.996094 -8.792969 C 19.996094 -11.285156 19.085938 -13.425781 17.304688 -15.207031 C 15.523438 -16.988281 13.382812 -17.898438 10.890625 -17.898438 C 8.355469 -17.898438 6.21875 -16.988281 4.433594 -15.207031 C 2.652344 -13.425781 1.78125 -11.285156 1.78125 -8.792969 C 1.78125 -6.257812 2.652344 -4.117188 4.433594 -2.375 C 6.21875 -0.59375 8.394531 0.277344 10.890625 0.277344 C 13.34375 0.277344 15.523438 -0.59375 17.304688 -2.375 C 19.085938 -4.117188 19.996094 -6.257812 19.996094 -8.792969 Z M 19.996094 -8.792969 "/></g></g></g><g fill="#788f9c" fill-opacity="1"><g transform="translate(99.787323, 378.227708)"><g><path d="M 12.316406 -27.125 L 12.316406 -29.699219 L 10.335938 -29.699219 C 8.355469 -29.699219 6.96875 -29.183594 6.136719 -28.234375 C 5.304688 -27.285156 4.910156 -25.898438 4.910156 -24.15625 L 4.910156 -17.421875 L 1.386719 -17.421875 L 1.386719 -14.851562 L 4.910156 -14.851562 L 4.910156 0 L 7.683594 0 L 7.683594 -14.851562 L 12.316406 -14.851562 L 12.316406 -17.421875 L 7.683594 -17.421875 L 7.683594 -24.949219 C 7.683594 -25.542969 7.800781 -26.054688 8.117188 -26.492188 C 8.394531 -26.886719 8.988281 -27.125 9.941406 -27.125 Z M 12.316406 -27.125 "/></g></g></g><g fill="#788f9c" fill-opacity="1"><g transform="translate(121.210108, 378.227708)"><g><path d="M 0.792969 -14.851562 L 5.148438 -14.851562 L 5.148438 0 L 7.917969 0 L 7.917969 -14.851562 L 12.234375 -14.851562 L 12.234375 -17.421875 L 7.917969 -17.421875 L 7.917969 -24.195312 L 5.148438 -24.195312 L 5.148438 -17.421875 L 0.792969 -17.421875 Z M 0.792969 -14.851562 "/></g></g></g><g fill="#788f9c" fill-opacity="1"><g transform="translate(142.157734, 378.227708)"><g><path d="M 19.996094 2.21875 L 28.273438 -17.421875 L 25.183594 -17.421875 L 19.957031 -4 L 14.335938 -18.335938 L 8.710938 -4 L 3.484375 -17.421875 L 0.394531 -17.421875 L 8.75 2.21875 L 14.335938 -11.839844 Z M 19.996094 2.21875 "/></g></g></g><g fill="#788f9c" fill-opacity="1"><g transform="translate(178.745958, 378.227708)"><g><path d="M 16.828125 -8.710938 C 16.828125 -7.007812 16.234375 -5.503906 15.046875 -4.277344 C 13.859375 -3.007812 12.394531 -2.375 10.691406 -2.375 C 8.949219 -2.375 7.484375 -3.007812 6.296875 -4.277344 C 5.109375 -5.503906 4.554688 -7.007812 4.554688 -8.710938 C 4.554688 -10.375 5.109375 -11.878906 6.296875 -13.148438 C 7.484375 -14.414062 8.949219 -15.046875 10.691406 -15.046875 C 12.394531 -15.046875 13.859375 -14.414062 15.046875 -13.148438 C 16.234375 -11.878906 16.828125 -10.375 16.828125 -8.710938 Z M 19.601562 0 L 19.601562 -17.421875 L 16.828125 -17.421875 L 16.828125 -14.414062 C 16.671875 -14.652344 16.472656 -14.851562 16.316406 -15.046875 C 14.652344 -16.871094 12.632812 -17.820312 10.257812 -17.820312 C 7.839844 -17.820312 5.820312 -16.871094 4.15625 -15.046875 C 2.574219 -13.226562 1.78125 -11.128906 1.78125 -8.710938 C 1.78125 -6.257812 2.574219 -4.15625 4.15625 -2.375 C 5.820312 -0.515625 7.839844 0.394531 10.257812 0.394531 C 12.632812 0.394531 14.652344 -0.515625 16.316406 -2.375 C 16.472656 -2.535156 16.671875 -2.730469 16.828125 -2.96875 L 16.828125 0 Z M 19.601562 0 "/></g></g></g><g fill="#788f9c" fill-opacity="1"><g transform="translate(209.236335, 378.227708)"><g><path d="M 11.917969 -13.820312 L 11.917969 -17.421875 C 11.363281 -17.660156 10.769531 -17.78125 10.175781 -17.78125 C 8.195312 -17.78125 6.773438 -16.671875 5.859375 -14.53125 L 5.742188 -13.820312 L 5.742188 -17.421875 L 2.96875 -17.421875 L 2.96875 0 L 5.742188 0 L 5.742188 -8.710938 C 5.742188 -10.136719 6.058594 -11.40625 6.730469 -12.554688 C 7.046875 -13.148438 7.484375 -13.660156 8 -14.058594 C 8.515625 -14.453125 9.148438 -14.691406 9.859375 -14.691406 C 10.574219 -14.691406 11.246094 -14.375 11.917969 -13.820312 Z M 11.917969 -13.820312 "/></g></g></g><g fill="#788f9c" fill-opacity="1"><g transform="translate(229.471235, 378.227708)"><g><path d="M 19.996094 -9.109375 C 19.996094 -11.484375 19.046875 -13.542969 17.226562 -15.324219 C 15.445312 -17.027344 13.304688 -17.898438 10.890625 -17.898438 C 8.355469 -17.898438 6.21875 -16.988281 4.433594 -15.207031 C 2.652344 -13.425781 1.78125 -11.285156 1.78125 -8.792969 C 1.78125 -6.257812 2.652344 -4.117188 4.433594 -2.375 C 5.265625 -1.542969 6.21875 -0.910156 7.324219 -0.4375 C 8.433594 0.0390625 9.742188 0.277344 11.285156 0.277344 C 12.832031 0.277344 14.335938 -0.199219 15.839844 -1.148438 C 17.34375 -2.097656 18.453125 -3.445312 19.207031 -5.109375 L 16.039062 -5.109375 C 15.402344 -4.277344 14.652344 -3.644531 13.742188 -3.167969 C 12.832031 -2.691406 11.878906 -2.496094 10.890625 -2.496094 C 9.386719 -2.496094 8.039062 -2.96875 6.851562 -3.960938 C 5.664062 -4.910156 4.910156 -6.136719 4.671875 -7.644531 L 19.996094 -7.644531 Z M 17.066406 -10.019531 L 4.710938 -10.019531 C 4.871094 -10.730469 5.148438 -11.40625 5.542969 -12.039062 C 6.8125 -14.097656 8.59375 -15.128906 10.890625 -15.128906 C 12.355469 -15.128906 13.660156 -14.652344 14.808594 -13.703125 C 16 -12.710938 16.710938 -11.484375 17.066406 -10.019531 Z M 17.066406 -10.019531 "/></g></g></g><g fill="#788f9c" fill-opacity="1"><g transform="translate(258.971694, 378.227708)"><g/></g></g><g fill="#788f9c" fill-opacity="1"><g transform="translate(277.583126, 378.227708)"><g><path d="M 18.96875 0 L 18.96875 -2.574219 L 5.742188 -2.574219 L 5.742188 -12.15625 L 18.570312 -12.15625 L 18.570312 -14.769531 L 5.742188 -14.769531 L 5.742188 -24.355469 L 18.96875 -24.355469 L 18.96875 -26.925781 L 2.96875 -26.925781 L 2.96875 0 Z M 18.96875 0 "/></g></g></g><g fill="#788f9c" fill-opacity="1"><g transform="translate(307.439953, 378.227708)"><g><path d="M 15.007812 0 L 17.78125 0 L 17.78125 -10.890625 C 17.78125 -12.910156 17.226562 -14.53125 16.195312 -15.761719 C 15.640625 -16.394531 15.007812 -16.871094 14.253906 -17.226562 C 13.464844 -17.582031 12.472656 -17.78125 11.246094 -17.78125 C 9.980469 -17.78125 8.910156 -17.421875 7.960938 -16.789062 C 7.046875 -16.195312 6.296875 -15.402344 5.742188 -14.414062 L 5.742188 -17.421875 L 2.96875 -17.421875 L 2.96875 0 L 5.742188 0 L 5.742188 -7.285156 C 5.742188 -9.503906 6.136719 -11.246094 6.96875 -12.554688 C 7.445312 -13.265625 8.039062 -13.859375 8.792969 -14.335938 C 9.503906 -14.769531 10.492188 -15.007812 11.683594 -15.007812 C 12.871094 -15.007812 13.703125 -14.574219 14.214844 -13.78125 C 14.730469 -12.988281 15.007812 -12 15.007812 -10.890625 Z M 15.007812 0 "/></g></g></g><g fill="#788f9c" fill-opacity="1"><g transform="translate(335.51496, 378.227708)"><g><path d="M 17.066406 -8.710938 C 17.066406 -7.007812 16.472656 -5.503906 15.285156 -4.277344 C 14.097656 -3.007812 12.632812 -2.375 10.929688 -2.375 C 9.226562 -2.375 7.761719 -3.007812 6.574219 -4.277344 C 5.386719 -5.503906 4.792969 -6.96875 4.792969 -8.710938 C 4.792969 -10.414062 5.386719 -11.878906 6.574219 -13.148438 C 7.761719 -14.414062 9.226562 -15.046875 10.929688 -15.046875 C 12.632812 -15.046875 14.097656 -14.414062 15.285156 -13.148438 C 16.472656 -11.878906 17.066406 -10.375 17.066406 -8.710938 Z M 4.710938 2.375 L 1.859375 2.375 C 2.179688 4.238281 3.007812 5.859375 4.433594 7.246094 C 6.175781 9.027344 8.316406 9.898438 10.8125 9.898438 C 13.265625 9.898438 15.402344 9.027344 17.1875 7.246094 C 18.929688 5.503906 19.839844 3.367188 19.839844 0.871094 L 19.839844 -17.421875 L 17.066406 -17.421875 L 17.066406 -14.492188 C 16.910156 -14.652344 16.75 -14.851562 16.59375 -15.046875 C 14.851562 -16.871094 12.832031 -17.820312 10.535156 -17.820312 C 8.078125 -17.820312 6.058594 -16.871094 4.394531 -15.046875 C 2.8125 -13.226562 2.019531 -11.128906 2.019531 -8.710938 C 2.019531 -6.257812 2.8125 -4.15625 4.394531 -2.375 C 6.058594 -0.515625 8.078125 0.394531 10.535156 0.394531 C 12.910156 0.394531 14.929688 -0.515625 16.59375 -2.375 C 16.75 -2.535156 16.910156 -2.730469 17.066406 -2.890625 L 17.066406 0.871094 C 17.066406 2.613281 16.433594 4.078125 15.207031 5.304688 C 13.980469 6.535156 12.511719 7.128906 10.8125 7.128906 C 9.066406 7.128906 7.601562 6.535156 6.375 5.304688 C 5.503906 4.433594 4.949219 3.484375 4.710938 2.375 Z M 4.710938 2.375 "/></g></g></g><g fill="#788f9c" fill-opacity="1"><g transform="translate(366.24292, 378.227708)"><g><path d="M 5.78125 -23.441406 C 5.425781 -23.757812 4.988281 -23.957031 4.515625 -23.957031 C 4.039062 -23.957031 3.605469 -23.757812 3.285156 -23.441406 C 2.929688 -23.085938 2.773438 -22.652344 2.773438 -22.175781 C 2.773438 -21.699219 2.929688 -21.265625 3.285156 -20.949219 C 3.605469 -20.589844 4.039062 -20.433594 4.515625 -20.433594 C 4.988281 -20.433594 5.425781 -20.589844 5.78125 -20.949219 C 6.097656 -21.265625 6.296875 -21.699219 6.296875 -22.175781 C 6.296875 -22.652344 6.097656 -23.085938 5.78125 -23.441406 Z M 5.941406 0 L 5.941406 -17.421875 L 3.167969 -17.421875 L 3.167969 0 Z M 5.941406 0 "/></g></g></g><g fill="#788f9c" fill-opacity="1"><g transform="translate(383.230884, 378.227708)"><g><path d="M 15.007812 0 L 17.78125 0 L 17.78125 -10.890625 C 17.78125 -12.910156 17.226562 -14.53125 16.195312 -15.761719 C 15.640625 -16.394531 15.007812 -16.871094 14.253906 -17.226562 C 13.464844 -17.582031 12.472656 -17.78125 11.246094 -17.78125 C 9.980469 -17.78125 8.910156 -17.421875 7.960938 -16.789062 C 7.046875 -16.195312 6.296875 -15.402344 5.742188 -14.414062 L 5.742188 -17.421875 L 2.96875 -17.421875 L 2.96875 0 L 5.742188 0 L 5.742188 -7.285156 C 5.742188 -9.503906 6.136719 -11.246094 6.96875 -12.554688 C 7.445312 -13.265625 8.039062 -13.859375 8.792969 -14.335938 C 9.503906 -14.769531 10.492188 -15.007812 11.683594 -15.007812 C 12.871094 -15.007812 13.703125 -14.574219 14.214844 -13.78125 C 14.730469 -12.988281 15.007812 -12 15.007812 -10.890625 Z M 15.007812 0 "/></g></g></g><g fill="#788f9c" fill-opacity="1"><g transform="translate(411.305892, 378.227708)"><g><path d="M 19.996094 -9.109375 C 19.996094 -11.484375 19.046875 -13.542969 17.226562 -15.324219 C 15.445312 -17.027344 13.304688 -17.898438 10.890625 -17.898438 C 8.355469 -17.898438 6.21875 -16.988281 4.433594 -15.207031 C 2.652344 -13.425781 1.78125 -11.285156 1.78125 -8.792969 C 1.78125 -6.257812 2.652344 -4.117188 4.433594 -2.375 C 5.265625 -1.542969 6.21875 -0.910156 7.324219 -0.4375 C 8.433594 0.0390625 9.742188 0.277344 11.285156 0.277344 C 12.832031 0.277344 14.335938 -0.199219 15.839844 -1.148438 C 17.34375 -2.097656 18.453125 -3.445312 19.207031 -5.109375 L 16.039062 -5.109375 C 15.402344 -4.277344 14.652344 -3.644531 13.742188 -3.167969 C 12.832031 -2.691406 11.878906 -2.496094 10.890625 -2.496094 C 9.386719 -2.496094 8.039062 -2.96875 6.851562 -3.960938 C 5.664062 -4.910156 4.910156 -6.136719 4.671875 -7.644531 L 19.996094 -7.644531 Z M 17.066406 -10.019531 L 4.710938 -10.019531 C 4.871094 -10.730469 5.148438 -11.40625 5.542969 -12.039062 C 6.8125 -14.097656 8.59375 -15.128906 10.890625 -15.128906 C 12.355469 -15.128906 13.660156 -14.652344 14.808594 -13.703125 C 16 -12.710938 16.710938 -11.484375 17.066406 -10.019531 Z M 17.066406 -10.019531 "/></g></g></g><g fill="#788f9c" fill-opacity="1"><g transform="translate(440.806367, 378.227708)"><g><path d="M 19.996094 -9.109375 C 19.996094 -11.484375 19.046875 -13.542969 17.226562 -15.324219 C 15.445312 -17.027344 13.304688 -17.898438 10.890625 -17.898438 C 8.355469 -17.898438 6.21875 -16.988281 4.433594 -15.207031 C 2.652344 -13.425781 1.78125 -11.285156 1.78125 -8.792969 C 1.78125 -6.257812 2.652344 -4.117188 4.433594 -2.375 C 5.265625 -1.542969 6.21875 -0.910156 7.324219 -0.4375 C 8.433594 0.0390625 9.742188 0.277344 11.285156 0.277344 C 12.832031 0.277344 14.335938 -0.199219 15.839844 -1.148438 C 17.34375 -2.097656 18.453125 -3.445312 19.207031 -5.109375 L 16.039062 -5.109375 C 15.402344 -4.277344 14.652344 -3.644531 13.742188 -3.167969 C 12.832031 -2.691406 11.878906 -2.496094 10.890625 -2.496094 C 9.386719 -2.496094 8.039062 -2.96875 6.851562 -3.960938 C 5.664062 -4.910156 4.910156 -6.136719 4.671875 -7.644531 L 19.996094 -7.644531 Z M 17.066406 -10.019531 L 4.710938 -10.019531 C 4.871094 -10.730469 5.148438 -11.40625 5.542969 -12.039062 C 6.8125 -14.097656 8.59375 -15.128906 10.890625 -15.128906 C 12.355469 -15.128906 13.660156 -14.652344 14.808594 -13.703125 C 16 -12.710938 16.710938 -11.484375 17.066406 -10.019531 Z M 17.066406 -10.019531 "/></g></g></g><g fill="#788f9c" fill-opacity="1"><g transform="translate(470.306843, 378.227708)"><g><path d="M 11.917969 -13.820312 L 11.917969 -17.421875 C 11.363281 -17.660156 10.769531 -17.78125 10.175781 -17.78125 C 8.195312 -17.78125 6.773438 -16.671875 5.859375 -14.53125 L 5.742188 -13.820312 L 5.742188 -17.421875 L 2.96875 -17.421875 L 2.96875 0 L 5.742188 0 L 5.742188 -8.710938 C 5.742188 -10.136719 6.058594 -11.40625 6.730469 -12.554688 C 7.046875 -13.148438 7.484375 -13.660156 8 -14.058594 C 8.515625 -14.453125 9.148438 -14.691406 9.859375 -14.691406 C 10.574219 -14.691406 11.246094 -14.375 11.917969 -13.820312 Z M 11.917969 -13.820312 "/></g></g></g></svg>
